<?xml version="1.0" encoding="utf-8"?>
<svg xmlns="http://www.w3.org/2000/svg" xmlns:xlink="http://www.w3.org/1999/xlink" width="500" height="500" viewBox="0 0 2000 2000">
<defs>
  <clipPath id="clip9700">
    <rect x="0" y="0" width="2000" height="2000"/>
  </clipPath>
</defs>
<polygon clip-path="url(#clip9700)" points="
0,2000 2000,2000 2000,0 0,0 
  " fill="#ffffff" fill-rule="evenodd" fill-opacity="1"/>
<defs>
  <clipPath id="clip9701">
    <rect x="400" y="200" width="1401" height="1401"/>
  </clipPath>
</defs>
<polygon clip-path="url(#clip9700)" points="
264.636,1937.07 1980.31,1937.07 1980.31,11.811 264.636,11.811 
  " fill="#ffffff" fill-rule="evenodd" fill-opacity="1"/>
<defs>
  <clipPath id="clip9702">
    <rect x="264" y="11" width="1717" height="1926"/>
  </clipPath>
</defs>
<polyline clip-path="url(#clip9702)" style="stroke:#000000; stroke-width:0.5; stroke-opacity:0.1; fill:none" points="
  313.193,1937.07 313.193,11.811 
  "/>
<polyline clip-path="url(#clip9702)" style="stroke:#000000; stroke-width:0.5; stroke-opacity:0.1; fill:none" points="
  717.834,1937.07 717.834,11.811 
  "/>
<polyline clip-path="url(#clip9702)" style="stroke:#000000; stroke-width:0.5; stroke-opacity:0.1; fill:none" points="
  1122.48,1937.07 1122.48,11.811 
  "/>
<polyline clip-path="url(#clip9702)" style="stroke:#000000; stroke-width:0.5; stroke-opacity:0.1; fill:none" points="
  1527.12,1937.07 1527.12,11.811 
  "/>
<polyline clip-path="url(#clip9702)" style="stroke:#000000; stroke-width:0.5; stroke-opacity:0.1; fill:none" points="
  1931.76,1937.07 1931.76,11.811 
  "/>
<polyline clip-path="url(#clip9702)" style="stroke:#000000; stroke-width:0.5; stroke-opacity:0.1; fill:none" points="
  264.636,1655.61 1980.31,1655.61 
  "/>
<polyline clip-path="url(#clip9702)" style="stroke:#000000; stroke-width:0.5; stroke-opacity:0.1; fill:none" points="
  264.636,1157.66 1980.31,1157.66 
  "/>
<polyline clip-path="url(#clip9702)" style="stroke:#000000; stroke-width:0.5; stroke-opacity:0.1; fill:none" points="
  264.636,659.719 1980.31,659.719 
  "/>
<polyline clip-path="url(#clip9702)" style="stroke:#000000; stroke-width:0.5; stroke-opacity:0.1; fill:none" points="
  264.636,161.775 1980.31,161.775 
  "/>
<polyline clip-path="url(#clip9700)" style="stroke:#000000; stroke-width:1; stroke-opacity:1; fill:none" points="
  264.636,1937.07 1980.31,1937.07 
  "/>
<polyline clip-path="url(#clip9700)" style="stroke:#000000; stroke-width:1; stroke-opacity:1; fill:none" points="
  264.636,1937.07 264.636,11.811 
  "/>
<polyline clip-path="url(#clip9700)" style="stroke:#000000; stroke-width:1; stroke-opacity:1; fill:none" points="
  313.193,1937.07 313.193,1908.19 
  "/>
<polyline clip-path="url(#clip9700)" style="stroke:#000000; stroke-width:1; stroke-opacity:1; fill:none" points="
  717.834,1937.07 717.834,1908.19 
  "/>
<polyline clip-path="url(#clip9700)" style="stroke:#000000; stroke-width:1; stroke-opacity:1; fill:none" points="
  1122.48,1937.07 1122.48,1908.19 
  "/>
<polyline clip-path="url(#clip9700)" style="stroke:#000000; stroke-width:1; stroke-opacity:1; fill:none" points="
  1527.12,1937.07 1527.12,1908.19 
  "/>
<polyline clip-path="url(#clip9700)" style="stroke:#000000; stroke-width:1; stroke-opacity:1; fill:none" points="
  1931.76,1937.07 1931.76,1908.19 
  "/>
<polyline clip-path="url(#clip9700)" style="stroke:#000000; stroke-width:1; stroke-opacity:1; fill:none" points="
  264.636,1655.61 290.371,1655.61 
  "/>
<polyline clip-path="url(#clip9700)" style="stroke:#000000; stroke-width:1; stroke-opacity:1; fill:none" points="
  264.636,1157.66 290.371,1157.66 
  "/>
<polyline clip-path="url(#clip9700)" style="stroke:#000000; stroke-width:1; stroke-opacity:1; fill:none" points="
  264.636,659.719 290.371,659.719 
  "/>
<polyline clip-path="url(#clip9700)" style="stroke:#000000; stroke-width:1; stroke-opacity:1; fill:none" points="
  264.636,161.775 290.371,161.775 
  "/>
<g clip-path="url(#clip9700)">
<text style="fill:#000000; fill-opacity:1; font-family:Arial,Helvetica Neue,Helvetica,sans-serif; font-size:30px; text-anchor:middle;" transform="rotate(0, 313.193, 1973.47)" x="313.193" y="1973.47">2</text>
</g>
<g clip-path="url(#clip9700)">
<text style="fill:#000000; fill-opacity:1; font-family:Arial,Helvetica Neue,Helvetica,sans-serif; font-size:30px; text-anchor:middle;" transform="rotate(0, 717.834, 1973.47)" x="717.834" y="1973.47">3</text>
</g>
<g clip-path="url(#clip9700)">
<text style="fill:#000000; fill-opacity:1; font-family:Arial,Helvetica Neue,Helvetica,sans-serif; font-size:30px; text-anchor:middle;" transform="rotate(0, 1122.48, 1973.47)" x="1122.48" y="1973.47">4</text>
</g>
<g clip-path="url(#clip9700)">
<text style="fill:#000000; fill-opacity:1; font-family:Arial,Helvetica Neue,Helvetica,sans-serif; font-size:30px; text-anchor:middle;" transform="rotate(0, 1527.12, 1973.47)" x="1527.12" y="1973.47">5</text>
</g>
<g clip-path="url(#clip9700)">
<text style="fill:#000000; fill-opacity:1; font-family:Arial,Helvetica Neue,Helvetica,sans-serif; font-size:30px; text-anchor:middle;" transform="rotate(0, 1931.76, 1973.47)" x="1931.76" y="1973.47">6</text>
</g>
<g clip-path="url(#clip9700)">
<text style="fill:#000000; fill-opacity:1; font-family:Arial,Helvetica Neue,Helvetica,sans-serif; font-size:30px; text-anchor:start;" transform="rotate(0, 73.7536, 1670.44)" x="73.7536" y="1670.44">6.1221×10</text>
</g>
<g clip-path="url(#clip9700)">
<text style="fill:#000000; fill-opacity:1; font-family:Arial,Helvetica Neue,Helvetica,sans-serif; font-size:25px; text-anchor:start;" transform="rotate(0, 216.771, 1653.3)" x="216.771" y="1653.3">-</text>
</g>
<g clip-path="url(#clip9700)">
<text style="fill:#000000; fill-opacity:1; font-family:Arial,Helvetica Neue,Helvetica,sans-serif; font-size:25px; text-anchor:start;" transform="rotate(0, 231.046, 1653.3)" x="231.046" y="1653.3">5</text>
</g>
<g clip-path="url(#clip9700)">
<text style="fill:#000000; fill-opacity:1; font-family:Arial,Helvetica Neue,Helvetica,sans-serif; font-size:30px; text-anchor:start;" transform="rotate(0, 73.7536, 1172.49)" x="73.7536" y="1172.49">6.1222×10</text>
</g>
<g clip-path="url(#clip9700)">
<text style="fill:#000000; fill-opacity:1; font-family:Arial,Helvetica Neue,Helvetica,sans-serif; font-size:25px; text-anchor:start;" transform="rotate(0, 216.771, 1155.36)" x="216.771" y="1155.36">-</text>
</g>
<g clip-path="url(#clip9700)">
<text style="fill:#000000; fill-opacity:1; font-family:Arial,Helvetica Neue,Helvetica,sans-serif; font-size:25px; text-anchor:start;" transform="rotate(0, 231.046, 1155.36)" x="231.046" y="1155.36">5</text>
</g>
<g clip-path="url(#clip9700)">
<text style="fill:#000000; fill-opacity:1; font-family:Arial,Helvetica Neue,Helvetica,sans-serif; font-size:30px; text-anchor:start;" transform="rotate(0, 73.7536, 674.549)" x="73.7536" y="674.549">6.1223×10</text>
</g>
<g clip-path="url(#clip9700)">
<text style="fill:#000000; fill-opacity:1; font-family:Arial,Helvetica Neue,Helvetica,sans-serif; font-size:25px; text-anchor:start;" transform="rotate(0, 216.771, 657.417)" x="216.771" y="657.417">-</text>
</g>
<g clip-path="url(#clip9700)">
<text style="fill:#000000; fill-opacity:1; font-family:Arial,Helvetica Neue,Helvetica,sans-serif; font-size:25px; text-anchor:start;" transform="rotate(0, 231.046, 657.417)" x="231.046" y="657.417">5</text>
</g>
<g clip-path="url(#clip9700)">
<text style="fill:#000000; fill-opacity:1; font-family:Arial,Helvetica Neue,Helvetica,sans-serif; font-size:30px; text-anchor:start;" transform="rotate(0, 73.7536, 176.605)" x="73.7536" y="176.605">6.1224×10</text>
</g>
<g clip-path="url(#clip9700)">
<text style="fill:#000000; fill-opacity:1; font-family:Arial,Helvetica Neue,Helvetica,sans-serif; font-size:25px; text-anchor:start;" transform="rotate(0, 216.771, 159.473)" x="216.771" y="159.473">-</text>
</g>
<g clip-path="url(#clip9700)">
<text style="fill:#000000; fill-opacity:1; font-family:Arial,Helvetica Neue,Helvetica,sans-serif; font-size:25px; text-anchor:start;" transform="rotate(0, 231.046, 159.473)" x="231.046" y="159.473">5</text>
</g>
<g clip-path="url(#clip9700)">
<text style="fill:#000000; fill-opacity:1; font-family:Arial,Helvetica Neue,Helvetica,sans-serif; font-size:41px; text-anchor:middle;" transform="rotate(0, 1122.48, 1994)" x="1122.48" y="1994">Iteration number</text>
</g>
<g clip-path="url(#clip9700)">
<text style="fill:#000000; fill-opacity:1; font-family:Arial,Helvetica Neue,Helvetica,sans-serif; font-size:41px; text-anchor:middle;" transform="rotate(-90, 36, 974.439)" x="36" y="974.439">Distance from optimal objective value</text>
</g>
<polyline clip-path="url(#clip9702)" style="stroke:#009af9; stroke-width:8; stroke-opacity:1; fill:none" points="
  313.193,1868.43 717.834,1856.13 1122.48,1882.58 1527.12,1866.22 1931.76,1862.82 
  "/>
<polyline clip-path="url(#clip9702)" style="stroke:#e26f46; stroke-width:8; stroke-opacity:1; fill:none" points="
  313.193,1868.43 717.834,66.2994 1122.48,189.489 1527.12,139.163 1931.76,110.179 
  "/>
<polygon clip-path="url(#clip9700)" points="
1567.4,207.411 1920.31,207.411 1920.31,94.011 1567.4,94.011 
  " fill="#ffffff" fill-rule="evenodd" fill-opacity="1"/>
<polyline clip-path="url(#clip9700)" style="stroke:#000000; stroke-width:1; stroke-opacity:1; fill:none" points="
  1567.4,207.411 1920.31,207.411 1920.31,94.011 1567.4,94.011 1567.4,207.411 
  "/>
<polyline clip-path="url(#clip9700)" style="stroke:#009af9; stroke-width:8; stroke-opacity:1; fill:none" points="
  1587.4,131.811 1707.4,131.811 
  "/>
<g clip-path="url(#clip9700)">
<text style="fill:#000000; fill-opacity:1; font-family:Arial,Helvetica Neue,Helvetica,sans-serif; font-size:30px; text-anchor:start;" transform="rotate(0, 1727.4, 142.811)" x="1727.4" y="142.811">NC-DRS</text>
</g>
<polyline clip-path="url(#clip9700)" style="stroke:#e26f46; stroke-width:8; stroke-opacity:1; fill:none" points="
  1587.4,169.611 1707.4,169.611 
  "/>
<g clip-path="url(#clip9700)">
<text style="fill:#000000; fill-opacity:1; font-family:Arial,Helvetica Neue,Helvetica,sans-serif; font-size:30px; text-anchor:start;" transform="rotate(0, 1727.4, 180.611)" x="1727.4" y="180.611">NC-ADMM</text>
</g>
</svg>
