<?xml version="1.0" encoding="utf-8"?>
<svg xmlns="http://www.w3.org/2000/svg" xmlns:xlink="http://www.w3.org/1999/xlink" width="500" height="500" viewBox="0 0 2000 2000">
<defs>
  <clipPath id="clip9500">
    <rect x="0" y="0" width="2000" height="2000"/>
  </clipPath>
</defs>
<polygon clip-path="url(#clip9500)" points="
0,2000 2000,2000 2000,0 0,0 
  " fill="#ffffff" fill-rule="evenodd" fill-opacity="1"/>
<defs>
  <clipPath id="clip9501">
    <rect x="400" y="200" width="1401" height="1401"/>
  </clipPath>
</defs>
<polygon clip-path="url(#clip9500)" points="
72.823,1937.07 1980.31,1937.07 1980.31,11.811 72.823,11.811 
  " fill="#ffffff" fill-rule="evenodd" fill-opacity="1"/>
<defs>
  <clipPath id="clip9502">
    <rect x="72" y="11" width="1908" height="1926"/>
  </clipPath>
</defs>
<polyline clip-path="url(#clip9502)" style="stroke:#000000; stroke-width:0.5; stroke-opacity:0.1; fill:none" points="
  126.809,1937.07 126.809,11.811 
  "/>
<polyline clip-path="url(#clip9502)" style="stroke:#000000; stroke-width:0.5; stroke-opacity:0.1; fill:none" points="
  486.713,1937.07 486.713,11.811 
  "/>
<polyline clip-path="url(#clip9502)" style="stroke:#000000; stroke-width:0.5; stroke-opacity:0.1; fill:none" points="
  846.617,1937.07 846.617,11.811 
  "/>
<polyline clip-path="url(#clip9502)" style="stroke:#000000; stroke-width:0.5; stroke-opacity:0.1; fill:none" points="
  1206.52,1937.07 1206.52,11.811 
  "/>
<polyline clip-path="url(#clip9502)" style="stroke:#000000; stroke-width:0.5; stroke-opacity:0.1; fill:none" points="
  1566.43,1937.07 1566.43,11.811 
  "/>
<polyline clip-path="url(#clip9502)" style="stroke:#000000; stroke-width:0.5; stroke-opacity:0.1; fill:none" points="
  1926.33,1937.07 1926.33,11.811 
  "/>
<polyline clip-path="url(#clip9502)" style="stroke:#000000; stroke-width:0.5; stroke-opacity:0.1; fill:none" points="
  72.823,1882.58 1980.31,1882.58 
  "/>
<polyline clip-path="url(#clip9502)" style="stroke:#000000; stroke-width:0.5; stroke-opacity:0.1; fill:none" points="
  72.823,1363.64 1980.31,1363.64 
  "/>
<polyline clip-path="url(#clip9502)" style="stroke:#000000; stroke-width:0.5; stroke-opacity:0.1; fill:none" points="
  72.823,844.706 1980.31,844.706 
  "/>
<polyline clip-path="url(#clip9502)" style="stroke:#000000; stroke-width:0.5; stroke-opacity:0.1; fill:none" points="
  72.823,325.768 1980.31,325.768 
  "/>
<polyline clip-path="url(#clip9500)" style="stroke:#000000; stroke-width:1; stroke-opacity:1; fill:none" points="
  72.823,1937.07 1980.31,1937.07 
  "/>
<polyline clip-path="url(#clip9500)" style="stroke:#000000; stroke-width:1; stroke-opacity:1; fill:none" points="
  72.823,1937.07 72.823,11.811 
  "/>
<polyline clip-path="url(#clip9500)" style="stroke:#000000; stroke-width:1; stroke-opacity:1; fill:none" points="
  126.809,1937.07 126.809,1908.19 
  "/>
<polyline clip-path="url(#clip9500)" style="stroke:#000000; stroke-width:1; stroke-opacity:1; fill:none" points="
  486.713,1937.07 486.713,1908.19 
  "/>
<polyline clip-path="url(#clip9500)" style="stroke:#000000; stroke-width:1; stroke-opacity:1; fill:none" points="
  846.617,1937.07 846.617,1908.19 
  "/>
<polyline clip-path="url(#clip9500)" style="stroke:#000000; stroke-width:1; stroke-opacity:1; fill:none" points="
  1206.52,1937.07 1206.52,1908.19 
  "/>
<polyline clip-path="url(#clip9500)" style="stroke:#000000; stroke-width:1; stroke-opacity:1; fill:none" points="
  1566.43,1937.07 1566.43,1908.19 
  "/>
<polyline clip-path="url(#clip9500)" style="stroke:#000000; stroke-width:1; stroke-opacity:1; fill:none" points="
  1926.33,1937.07 1926.33,1908.19 
  "/>
<polyline clip-path="url(#clip9500)" style="stroke:#000000; stroke-width:1; stroke-opacity:1; fill:none" points="
  72.823,1882.58 101.435,1882.58 
  "/>
<polyline clip-path="url(#clip9500)" style="stroke:#000000; stroke-width:1; stroke-opacity:1; fill:none" points="
  72.823,1363.64 101.435,1363.64 
  "/>
<polyline clip-path="url(#clip9500)" style="stroke:#000000; stroke-width:1; stroke-opacity:1; fill:none" points="
  72.823,844.706 101.435,844.706 
  "/>
<polyline clip-path="url(#clip9500)" style="stroke:#000000; stroke-width:1; stroke-opacity:1; fill:none" points="
  72.823,325.768 101.435,325.768 
  "/>
<g clip-path="url(#clip9500)">
<text style="fill:#000000; fill-opacity:1; font-family:Arial,Helvetica Neue,Helvetica,sans-serif; font-size:30px; text-anchor:middle;" transform="rotate(0, 126.809, 1973.47)" x="126.809" y="1973.47">1</text>
</g>
<g clip-path="url(#clip9500)">
<text style="fill:#000000; fill-opacity:1; font-family:Arial,Helvetica Neue,Helvetica,sans-serif; font-size:30px; text-anchor:middle;" transform="rotate(0, 486.713, 1973.47)" x="486.713" y="1973.47">2</text>
</g>
<g clip-path="url(#clip9500)">
<text style="fill:#000000; fill-opacity:1; font-family:Arial,Helvetica Neue,Helvetica,sans-serif; font-size:30px; text-anchor:middle;" transform="rotate(0, 846.617, 1973.47)" x="846.617" y="1973.47">3</text>
</g>
<g clip-path="url(#clip9500)">
<text style="fill:#000000; fill-opacity:1; font-family:Arial,Helvetica Neue,Helvetica,sans-serif; font-size:30px; text-anchor:middle;" transform="rotate(0, 1206.52, 1973.47)" x="1206.52" y="1973.47">4</text>
</g>
<g clip-path="url(#clip9500)">
<text style="fill:#000000; fill-opacity:1; font-family:Arial,Helvetica Neue,Helvetica,sans-serif; font-size:30px; text-anchor:middle;" transform="rotate(0, 1566.43, 1973.47)" x="1566.43" y="1973.47">5</text>
</g>
<g clip-path="url(#clip9500)">
<text style="fill:#000000; fill-opacity:1; font-family:Arial,Helvetica Neue,Helvetica,sans-serif; font-size:30px; text-anchor:middle;" transform="rotate(0, 1926.33, 1973.47)" x="1926.33" y="1973.47">6</text>
</g>
<g clip-path="url(#clip9500)">
<text style="fill:#000000; fill-opacity:1; font-family:Arial,Helvetica Neue,Helvetica,sans-serif; font-size:30px; text-anchor:end;" transform="rotate(0, 52.823, 1893.58)" x="52.823" y="1893.58">0</text>
</g>
<g clip-path="url(#clip9500)">
<text style="fill:#000000; fill-opacity:1; font-family:Arial,Helvetica Neue,Helvetica,sans-serif; font-size:30px; text-anchor:end;" transform="rotate(0, 52.823, 1374.64)" x="52.823" y="1374.64">10</text>
</g>
<g clip-path="url(#clip9500)">
<text style="fill:#000000; fill-opacity:1; font-family:Arial,Helvetica Neue,Helvetica,sans-serif; font-size:30px; text-anchor:end;" transform="rotate(0, 52.823, 855.706)" x="52.823" y="855.706">20</text>
</g>
<g clip-path="url(#clip9500)">
<text style="fill:#000000; fill-opacity:1; font-family:Arial,Helvetica Neue,Helvetica,sans-serif; font-size:30px; text-anchor:end;" transform="rotate(0, 52.823, 336.768)" x="52.823" y="336.768">30</text>
</g>
<g clip-path="url(#clip9500)">
<text style="fill:#000000; fill-opacity:1; font-family:Arial,Helvetica Neue,Helvetica,sans-serif; font-size:41px; text-anchor:middle;" transform="rotate(0, 1026.57, 1994)" x="1026.57" y="1994">Iteration number</text>
</g>
<g clip-path="url(#clip9500)">
<text style="fill:#000000; fill-opacity:1; font-family:Arial,Helvetica Neue,Helvetica,sans-serif; font-size:41px; text-anchor:middle;" transform="rotate(-90, 36, 974.439)" x="36" y="974.439">Distance from optimal objective value</text>
</g>
<polyline clip-path="url(#clip9502)" style="stroke:#009af9; stroke-width:8; stroke-opacity:1; fill:none" points="
  126.809,66.2994 486.713,1882.58 846.617,1882.58 1206.52,1882.58 1566.43,1882.58 1926.33,1882.58 
  "/>
<polyline clip-path="url(#clip9502)" style="stroke:#e26f46; stroke-width:8; stroke-opacity:1; fill:none" points="
  126.809,66.2994 486.713,1882.58 846.617,1882.58 1206.52,1882.58 1566.43,1882.58 1926.33,1882.58 
  "/>
<polygon clip-path="url(#clip9500)" points="
1567.4,207.411 1920.31,207.411 1920.31,94.011 1567.4,94.011 
  " fill="#ffffff" fill-rule="evenodd" fill-opacity="1"/>
<polyline clip-path="url(#clip9500)" style="stroke:#000000; stroke-width:1; stroke-opacity:1; fill:none" points="
  1567.4,207.411 1920.31,207.411 1920.31,94.011 1567.4,94.011 1567.4,207.411 
  "/>
<polyline clip-path="url(#clip9500)" style="stroke:#009af9; stroke-width:8; stroke-opacity:1; fill:none" points="
  1587.4,131.811 1707.4,131.811 
  "/>
<g clip-path="url(#clip9500)">
<text style="fill:#000000; fill-opacity:1; font-family:Arial,Helvetica Neue,Helvetica,sans-serif; font-size:30px; text-anchor:start;" transform="rotate(0, 1727.4, 142.811)" x="1727.4" y="142.811">NC-DRS</text>
</g>
<polyline clip-path="url(#clip9500)" style="stroke:#e26f46; stroke-width:8; stroke-opacity:1; fill:none" points="
  1587.4,169.611 1707.4,169.611 
  "/>
<g clip-path="url(#clip9500)">
<text style="fill:#000000; fill-opacity:1; font-family:Arial,Helvetica Neue,Helvetica,sans-serif; font-size:30px; text-anchor:start;" transform="rotate(0, 1727.4, 180.611)" x="1727.4" y="180.611">NC-ADMM</text>
</g>
</svg>
